<?xml version="1.0" encoding="UTF-8"?>
<svg id="Layer_2" data-name="Layer 2" xmlns="http://www.w3.org/2000/svg" viewBox="0 0 41.61 41.5">
  <defs>
    <style>
      .cls-1 {
        fill: #000037;
        stroke-width: 0px;
      }
    </style>
  </defs>
  <g id="Layer_1-2" data-name="Layer 1">
    <path class="cls-1" d="M0,20.62C.55,9.03,9.06-.09,21.07,0c11.55.09,20.7,8.95,20.54,21.13-.15,11.33-8.92,20.6-21.17,20.36C9.04,41.28.48,32.66,0,20.62ZM16.11,17.59s.01,0,.02,0c.01-.12.04-.24.03-.36-.09-1.28.32-2.82-1.01-3.62-1.31-.79-2.56.1-3.68.74-3.1,1.77-5.77,4.11-8.44,6.46-.31.27-.41.56-.36.95.11.79.18,1.58.32,2.37,1.66,9.34,10.55,16.12,20.15,14.86,5.59-.73,9.92-3.46,13.1-8.09.3-.43.39-.82.17-1.32-.72-1.61-1.54-3.15-2.76-4.45-1.32-1.41-2.92-2.01-4.84-1.83-1.49.14-2.85.73-4.25,1.2-1.25.42-2.48.91-3.76,1.18-3.14.67-4.89-.73-4.92-3.92-.02-1.39.14-2.79.22-4.18ZM37.21,29.08c3.51-6.35,2.55-15.01-2.96-20.76C28.32,2.12,19.4.8,11.98,4.95,6.72,7.9,2.03,15.4,3.05,19.36c.41-.37.78-.72,1.16-1.06,2.4-2.17,4.78-4.39,7.65-5.94,3.91-2.11,6.32-.59,6.17,3.84-.04,1.28-.21,2.55-.23,3.82-.05,3.4.85,4.08,4.11,3.24,2.01-.52,3.94-1.32,5.99-1.68,3.56-.61,5.86.5,7.51,3.69.64,1.23,1.19,2.5,1.81,3.8Z"/>
  </g>
</svg>