<?xml version="1.0" encoding="UTF-8"?>
<svg id="Layer_2" data-name="Layer 2" xmlns="http://www.w3.org/2000/svg" viewBox="0 0 36.62 36.59">
  <defs>
    <style>
      .cls-1 {
        fill: #d5e302;
      }

      .cls-1, .cls-2 {
        stroke-width: 0px;
      }

      .cls-2 {
        fill: #ef6602;
      }
    </style>
  </defs>
  <g id="Layer_1-2" data-name="Layer 1">
    <path class="cls-1" d="M13.45,15.03c-.08,1.39-.24,2.79-.22,4.18.04,3.19,1.78,4.59,4.92,3.92,1.28-.27,2.52-.76,3.76-1.18,1.4-.47,2.75-1.06,4.25-1.2,1.92-.18,3.52.42,4.84,1.83,1.22,1.3,2.04,2.84,2.76,4.45.22.5.13.89-.17,1.32-3.18,4.63-7.51,7.36-13.1,8.09C10.89,37.69,1.99,30.91.33,21.58c-.14-.78-.21-1.58-.32-2.37-.05-.38.05-.68.36-.95,2.67-2.35,5.34-4.69,8.44-6.46,1.12-.64,2.37-1.53,3.68-.74,1.32.8.92,2.34,1.01,3.62,0,.12-.02.24-.03.36,0,0-.01,0-.02,0Z"/>
    <path class="cls-2" d="M34.56,26.52c-.61-1.29-1.17-2.57-1.81-3.8-1.64-3.19-3.95-4.3-7.51-3.69-2.06.35-3.98,1.15-5.99,1.68-3.26.85-4.16.17-4.11-3.24.02-1.28.18-2.55.23-3.82.15-4.43-2.25-5.95-6.17-3.84-2.87,1.55-5.25,3.76-7.65,5.94-.38.34-.75.69-1.16,1.06C-.63,12.84,4.06,5.34,9.33,2.39,16.74-1.76,25.66-.43,31.59,5.76c5.51,5.75,6.47,14.41,2.96,20.76Z"/>
  </g>
</svg>