<?xml version="1.0" encoding="UTF-8"?>
<svg id="Layer_1" data-name="Layer 1" xmlns="http://www.w3.org/2000/svg" viewBox="0 0 133.66 92.72">
  <g>
    <path d="M12.98,70.84v-16.05h13.15v2.8h-10.47v13.24h-2.69ZM17.65,64.2v-2.45h7.85v2.45h-7.85Z" style="fill: #f7f4f2; stroke-width: 0px;"/>
    <path d="M29.71,70.84v-16.05h13.84v2.8h-11.15v10.44h11.17v2.8h-13.86ZM34.38,63.87v-2.36h8.59v2.36h-8.59Z" style="fill: #f7f4f2; stroke-width: 0px;"/>
    <path d="M47.6,70.84v-16.05h2.71v13.24h10.43v2.8h-13.13Z" style="fill: #f7f4f2; stroke-width: 0px;"/>
    <path d="M64.38,70.84v-16.05h2.71v13.24h10.43v2.8h-13.13Z" style="fill: #f7f4f2; stroke-width: 0px;"/>
    <path d="M81.3,70.84v-16.05h2.71v16.05h-2.71Z" style="fill: #f7f4f2; stroke-width: 0px;"/>
    <path d="M93.22,66.38v-2.72h6.22c.95,0,1.69-.28,2.23-.84.53-.56.8-1.29.8-2.21s-.27-1.66-.8-2.21c-.53-.54-1.28-.82-2.23-.82h-8.21v13.24h-2.69v-16.05h10.89c.9,0,1.69.14,2.4.41.7.27,1.3.65,1.78,1.15.48.49.85,1.09,1.11,1.8.26.71.38,1.5.38,2.38s-.13,1.66-.38,2.37c-.26.71-.63,1.33-1.11,1.84-.48.52-1.08.92-1.78,1.2-.7.29-1.5.43-2.4.43h-6.22Z" style="fill: #f7f4f2; stroke-width: 0px;"/>
    <path d="M108.74,70.84v-16.05h13.84v2.8h-11.15v10.44h11.17v2.8h-13.86ZM113.41,63.87v-2.36h8.59v2.36h-8.59Z" style="fill: #f7f4f2; stroke-width: 0px;"/>
    <path d="M19.85,92.5l-2.92-11.13-4.33,10.3c-.15.33-.34.59-.56.77-.22.18-.49.27-.81.27-.63,0-1.09-.35-1.37-1.05l-4.31-10.3-2.92,11.13H0l3.93-14.89c.18-.75.62-1.13,1.32-1.13.28,0,.54.08.79.24.25.16.43.39.56.7l4.71,11.19,4.71-11.19c.25-.62.68-.94,1.28-.94.64,0,1.07.38,1.28,1.13l3.91,14.89h-2.65Z" style="fill: #9b9b9b; stroke-width: 0px;"/>
    <path d="M25.95,92.5v-15.83h13.65v2.77h-11v10.3h11.02v2.77h-13.67ZM30.55,85.62v-2.33h8.47v2.33h-8.47Z" style="fill: #9b9b9b; stroke-width: 0px;"/>
    <path d="M46.07,80.92v11.58h-2.54v-14.37c0-.51.12-.91.37-1.21.25-.3.58-.45,1-.45.2,0,.39.04.57.13s.37.23.57.44l10.79,11.08v-11.58h2.54v14.5c0,.52-.12.93-.37,1.22-.25.29-.56.44-.96.44-.43,0-.84-.2-1.22-.59l-10.74-11.19Z" style="fill: #9b9b9b; stroke-width: 0px;"/>
    <path d="M63.63,92.5v-15.83h13.65v2.77h-11v10.3h11.02v2.77h-13.67ZM68.23,85.62v-2.33h8.47v2.33h-8.47Z" style="fill: #9b9b9b; stroke-width: 0px;"/>
    <path d="M82.3,92.5c-.41,0-.76-.12-1.06-.36-.3-.24-.45-.59-.45-1.06,0-.41.18-.8.55-1.18l10.16-10.6h-10.51v-2.63h13.37c.39,0,.74.12,1.05.36s.46.59.46,1.06c0,.41-.18.8-.55,1.18l-10.16,10.6h10.64v2.63h-13.5Z" style="fill: #9b9b9b; stroke-width: 0px;"/>
    <path d="M99.81,92.5v-15.83h13.65v2.77h-11v10.3h11.02v2.77h-13.67ZM104.42,85.62v-2.33h8.47v2.33h-8.47Z" style="fill: #9b9b9b; stroke-width: 0px;"/>
    <path d="M117.45,92.5v-2.77h11.46c.71,0,1.26-.19,1.65-.57.39-.38.58-.88.58-1.5,0-.68-.19-1.19-.58-1.53-.39-.34-.94-.51-1.65-.51h-7.02c-.72,0-1.36-.11-1.95-.34-.58-.22-1.07-.54-1.47-.94-.4-.4-.71-.87-.93-1.43-.22-.55-.33-1.15-.33-1.81s.1-1.23.3-1.77c.2-.54.5-1.01.9-1.4s.89-.7,1.48-.93c.59-.22,1.26-.34,2.02-.34h10.98v2.77h-10.98c-.62,0-1.09.17-1.43.51-.34.34-.5.82-.5,1.43s.17,1.08.52,1.42c.34.33.81.5,1.4.5h7c1.56,0,2.74.38,3.54,1.13.81.75,1.21,1.9,1.21,3.44,0,.67-.1,1.28-.29,1.85-.2.57-.49,1.06-.88,1.47-.39.41-.89.74-1.48.97-.6.23-1.29.35-2.09.35h-11.46Z" style="fill: #9b9b9b; stroke-width: 0px;"/>
  </g>
  <g>
    <path d="M53.26,42.82v-23.45h17.35c2.96-2.63,4.93-3.94,7.56-6.35l-1.87-.04h-22.99v-3.32c0-1.8,1.47-3.27,3.27-3.27h23.89c2.13-2.11,4.08-4.24,6.19-6.36h-29.87c-.11,0-.22-.01-.32-.03-5.28.03-9.55,4.32-9.55,9.6v33.21h6.34Z" style="fill: #f7f4f2; stroke-width: 0px;"/>
    <polygon points="68.5 35.29 73.72 31.25 80 26.45 80 42.82 86.39 42.82 86.39 13.47 80 18.37 68.5 27.21 58.31 19.37 58.31 27.44 63.29 31.25 68.5 35.29" style="fill: #9b9b9b; stroke-width: 0px;"/>
  </g>
</svg>