<?xml version="1.0" encoding="UTF-8"?>
<svg id="Layer_2" data-name="Layer 2" xmlns="http://www.w3.org/2000/svg" viewBox="0 0 41.61 41.5">
  <defs>
    <style>
      .cls-1 {
        fill: #f2f1ef;
      }

      .cls-1, .cls-2, .cls-3 {
        stroke-width: 0px;
      }

      .cls-2 {
        fill: #d5e302;
      }

      .cls-3 {
        fill: #ef6602;
      }
    </style>
  </defs>
  <g id="Layer_1-2" data-name="Layer 1">
    <g>
      <path class="cls-1" d="M0,20.62C.55,9.03,9.06-.09,21.07,0c11.55.09,20.7,8.95,20.54,21.13-.15,11.33-8.92,20.6-21.17,20.36C9.04,41.28.48,32.66,0,20.62ZM16.11,17.59s.01,0,.02,0c.01-.12.04-.24.03-.36-.09-1.28.32-2.82-1.01-3.62-1.31-.79-2.56.1-3.68.74-3.1,1.77-5.77,4.11-8.44,6.46-.31.27-.41.56-.36.95.11.79.18,1.58.32,2.37,1.66,9.34,10.55,16.12,20.15,14.86,5.59-.73,9.92-3.46,13.1-8.09.3-.43.39-.82.17-1.32-.72-1.61-1.54-3.15-2.76-4.45-1.32-1.41-2.92-2.01-4.84-1.83-1.49.14-2.85.73-4.25,1.2-1.25.42-2.48.91-3.76,1.18-3.14.67-4.89-.73-4.92-3.92-.02-1.39.14-2.79.22-4.18ZM37.21,29.08c3.51-6.35,2.55-15.01-2.96-20.76C28.32,2.12,19.4.8,11.98,4.95,6.72,7.9,2.03,15.4,3.05,19.36c.41-.37.78-.72,1.16-1.06,2.4-2.17,4.78-4.39,7.65-5.94,3.91-2.11,6.32-.59,6.17,3.84-.04,1.28-.21,2.55-.23,3.82-.05,3.4.85,4.08,4.11,3.24,2.01-.52,3.94-1.32,5.99-1.68,3.56-.61,5.86.5,7.51,3.69.64,1.23,1.19,2.5,1.81,3.8Z"/>
      <path class="cls-2" d="M16.11,17.59c-.08,1.39-.24,2.79-.22,4.18.04,3.19,1.78,4.59,4.92,3.92,1.28-.27,2.52-.76,3.76-1.18,1.4-.47,2.75-1.06,4.25-1.2,1.92-.18,3.52.42,4.84,1.83,1.22,1.3,2.04,2.84,2.76,4.45.22.5.13.89-.17,1.32-3.18,4.63-7.51,7.36-13.1,8.09-9.6,1.25-18.5-5.53-20.15-14.86-.14-.78-.21-1.58-.32-2.37-.05-.38.05-.68.36-.95,2.67-2.35,5.34-4.69,8.44-6.46,1.12-.64,2.37-1.53,3.68-.74,1.32.8.92,2.34,1.01,3.62,0,.12-.02.24-.03.36,0,0-.01,0-.02,0Z"/>
      <path class="cls-3" d="M37.21,29.08c-.61-1.29-1.17-2.57-1.81-3.8-1.64-3.19-3.95-4.3-7.51-3.69-2.06.35-3.98,1.15-5.99,1.68-3.26.85-4.16.17-4.11-3.24.02-1.28.18-2.55.23-3.82.15-4.43-2.25-5.95-6.17-3.84-2.87,1.55-5.25,3.76-7.65,5.94-.38.34-.75.69-1.16,1.06-1.02-3.97,3.67-11.46,8.94-14.41,7.41-4.15,16.33-2.83,22.27,3.37,5.51,5.75,6.47,14.41,2.96,20.76Z"/>
    </g>
  </g>
</svg>