<?xml version="1.0" encoding="UTF-8"?>
<svg id="Layer_2" data-name="Layer 2" xmlns="http://www.w3.org/2000/svg" viewBox="0 0 41.61 41.5">
  <defs>
    <style>
      .cls-1 {
        fill: #f7f4f2;
      }

      .cls-1, .cls-2 {
        stroke-width: 0px;
      }

      .cls-2 {
        fill: #9b9b9b;
      }
    </style>
  </defs>
  <path class="cls-1" d="M7.69,41.5v-22.73h16.82c2.87-2.55,4.78-3.82,7.32-6.16l-1.81-.04H7.74v-3.22c0-1.74,1.43-3.17,3.17-3.17h23.16c2.07-2.04,3.95-4.11,6-6.16H11.11c-.11,0-.21-.01-.31-.03C5.68.03,1.55,4.19,1.55,9.31v32.19h6.14Z"/>
  <polygon class="cls-2" points="22.46 34.2 27.51 30.29 33.61 25.63 33.61 41.5 39.8 41.5 39.8 13.05 33.61 17.81 22.46 26.38 12.58 18.78 12.58 26.6 17.41 30.29 22.46 34.2"/>
</svg>