<?xml version="1.0" encoding="utf-8"?>
<!-- Generator: Adobe Illustrator 27.9.1, SVG Export Plug-In . SVG Version: 6.00 Build 0)  -->
<svg version="1.1" id="Layer_1" xmlns="http://www.w3.org/2000/svg" xmlns:xlink="http://www.w3.org/1999/xlink" x="0px" y="0px"
	 viewBox="0 0 1440 320" style="enable-background:new 0 0 1440 320;" xml:space="preserve">
<style type="text/css">
	.st0{fill:#1A285B;}
</style>
<path class="st0" d="M0,96l34.3-10.7C68.6,75,137,53,206,85.3C274.3,117,343,203,411,224c69,21,138-21,206-37.3
	c68.7-15.7,137-5.7,206,5.3c68.4,11,137,21,206,32c68.1,11,137,21,205,0c68.9-21,137-75,172-101.3l34-26.7v224h-34.3
	c-34.3,0-102.7,0-171.7,0c-68.3,0-137,0-205,0c-69,0-138,0-206,0c-68.7,0-137,0-206,0c-68.4,0-137,0-206,0c-68.1,0-137,0-205,0
	c-68.9,0-137,0-172,0H0V96z"/>
</svg>
