<?xml version="1.0" standalone="no"?><svg xmlns="http://www.w3.org/2000/svg" viewBox="0 0 1440 320"><path fill="#f3f4f5" fill-opacity="1" d="M0,96L34.3,85.3C68.6,75,137,53,206,85.3C274.3,117,343,203,411,224C480,245,549,203,617,186.7C685.7,171,754,181,823,192C891.4,203,960,213,1029,224C1097.1,235,1166,245,1234,224C1302.9,203,1371,149,1406,122.7L1440,96L1440,320L1405.7,320C1371.4,320,1303,320,1234,320C1165.7,320,1097,320,1029,320C960,320,891,320,823,320C754.3,320,686,320,617,320C548.6,320,480,320,411,320C342.9,320,274,320,206,320C137.1,320,69,320,34,320L0,320Z"></path></svg>